<svg width="970" height="286" viewBox="0 0 970 286" fill="none" xmlns="http://www.w3.org/2000/svg">
<path d="M2.83122e-07 2.99998H40V247H56.8V283H2.83122e-07V2.99998ZM150.891 2.99998V241.4C150.891 269.4 132.491 285.4 106.891 285.4C81.2906 285.4 62.8906 269.4 62.8906 241.4V2.99998H102.891V243.4C102.891 247.4 104.091 249.4 106.891 249.4C109.691 249.4 110.891 247.4 110.891 243.4V2.99998H150.891ZM255.784 2.99998L233.384 131V131.8L255.784 283H214.584L199.784 154.2H198.984V283H158.984V2.99998H198.984V116.2H199.784L214.584 2.99998H255.784ZM333.766 2.99998L355.766 283H311.766L309.366 216.2H298.166L295.766 283H255.766L277.766 2.99998H333.766ZM299.366 180.2H308.166L305.366 95.4L304.166 47H303.366L302.166 95.4L299.366 180.2ZM446.966 197V241.4C446.966 269.4 428.566 285.4 402.966 285.4C377.766 285.4 358.966 269.4 358.966 241.4V184.6H398.966V243.4C398.966 247.4 400.166 249.4 402.966 249.4C405.766 249.4 406.966 247.4 406.966 243.4V197C406.966 180.2 396.566 163.4 385.766 145.4C372.966 124.6 358.966 102.2 358.966 76.6V44.6C358.966 17 378.166 0.599988 403.366 0.599988C428.566 0.599988 446.966 16.6 446.966 44.6V89H406.966V42.6C406.966 38.6 405.766 36.6 402.966 36.6C400.166 36.6 398.966 38.6 398.966 42.6V76.6C398.966 93.4 409.366 110.2 420.566 128.2C433.366 149 446.966 171.4 446.966 197ZM578.234 43V91.8C578.234 115.8 576.634 127.4 561.434 132.6V133.4C576.634 138.2 578.234 150.2 578.234 174.2V243C578.234 271 563.834 283 534.234 283H490.234V2.99998H534.634C563.834 2.99998 578.234 15 578.234 43ZM538.234 45C538.234 41 537.034 39 534.234 39H530.234V115H534.234C537.034 115 538.234 113 538.234 109V45ZM538.234 157C538.234 153 537.034 151 534.234 151H530.234V247H534.234C537.034 247 538.234 245 538.234 241V157ZM673.547 2.99998V241.4C673.547 269.4 655.147 285.4 629.547 285.4C603.947 285.4 585.547 269.4 585.547 241.4V2.99998H625.547V243.4C625.547 247.4 626.747 249.4 629.547 249.4C632.347 249.4 633.547 247.4 633.547 243.4V2.99998H673.547ZM729.641 165C729.641 161 728.441 159 725.641 159H721.641V283H681.641V2.99998H726.041C755.241 2.99998 769.641 15 769.641 43V99.8C769.641 123.8 768.041 135.4 752.841 140.6V141.4C768.041 146.2 769.641 158.2 769.641 182.2V246.2C769.641 264.2 770.041 269.8 774.441 282.2V283H733.241C730.441 272.2 729.641 265 729.641 246.6V165ZM729.641 45C729.641 41 728.441 39 725.641 39H721.641V123H725.641C728.441 123 729.641 121 729.641 117V45ZM865.734 43V91.8C865.734 115.8 864.134 127.4 848.934 132.6V133.4C864.134 138.2 865.734 150.2 865.734 174.2V243C865.734 271 851.334 283 821.734 283H777.734V2.99998H822.134C851.334 2.99998 865.734 15 865.734 43ZM825.734 45C825.734 41 824.534 39 821.734 39H817.734V115H821.734C824.534 115 825.734 113 825.734 109V45ZM825.734 157C825.734 153 824.534 151 821.734 151H817.734V247H821.734C824.534 247 825.734 245 825.734 241V157ZM947.047 2.99998L969.047 283H925.047L922.647 216.2H911.447L909.047 283H869.047L891.047 2.99998H947.047ZM912.647 180.2H921.447L918.647 95.4L917.447 47H916.647L915.447 95.4L912.647 180.2Z" fill="black"/>
</svg>
